<svg xmlns="http://www.w3.org/2000/svg" xmlns:xlink="http://www.w3.org/1999/xlink" width="500" zoomAndPan="magnify" viewBox="0 0 375 374.999991" height="500" preserveAspectRatio="xMidYMid meet" version="1.0"><defs><g/></defs><rect x="-37.5" width="450" fill="#ffffff" y="-37.499999" height="449.999989" fill-opacity="1"/><rect x="-37.5" width="450" fill="#ffffff" y="-37.499999" height="449.999989" fill-opacity="1"/><rect x="-37.5" width="450" fill="#ffffff" y="-37.499999" height="449.999989" fill-opacity="1"/><rect x="-37.5" width="450" fill="#ffffff" y="-37.499999" height="449.999989" fill-opacity="1"/><g fill="#aa9aba" fill-opacity="1"><g transform="translate(87.450651, 191.521497)"><g><path d="M 41.234375 -38.640625 L 41.234375 0 L 30.53125 0 L 15.84375 -17.546875 L 15.84375 0 L 3.140625 0 L 3.140625 -38.640625 L 13.859375 -38.640625 L 28.546875 -21.09375 L 28.546875 -38.640625 Z M 41.234375 -38.640625 "/></g></g></g><g fill="#aa9aba" fill-opacity="1"><g transform="translate(131.827746, 191.521497)"><g><path d="M 29.484375 -6.734375 L 14.796875 -6.734375 L 12.203125 0 L -1.046875 0 L 15.84375 -38.640625 L 28.65625 -38.640625 L 45.546875 0 L 32.078125 0 Z M 25.890625 -16.125 L 22.140625 -25.828125 L 18.375 -16.125 Z M 25.890625 -16.125 "/></g></g></g><g fill="#aa9aba" fill-opacity="1"><g transform="translate(176.315231, 191.521497)"><g><path d="M 41.234375 -38.640625 L 41.234375 0 L 30.53125 0 L 15.84375 -17.546875 L 15.84375 0 L 3.140625 0 L 3.140625 -38.640625 L 13.859375 -38.640625 L 28.546875 -21.09375 L 28.546875 -38.640625 Z M 41.234375 -38.640625 "/></g></g></g><g fill="#aa9aba" fill-opacity="1"><g transform="translate(220.692326, 191.521497)"><g><path d="M 3.140625 -38.640625 L 22.1875 -38.640625 C 26.5 -38.640625 30.300781 -37.859375 33.59375 -36.296875 C 36.882812 -34.734375 39.441406 -32.5 41.265625 -29.59375 C 43.085938 -26.6875 44 -23.265625 44 -19.328125 C 44 -15.390625 43.085938 -11.960938 41.265625 -9.046875 C 39.441406 -6.140625 36.882812 -3.90625 33.59375 -2.34375 C 30.300781 -0.78125 26.5 0 22.1875 0 L 3.140625 0 Z M 21.640625 -10.15625 C 24.429688 -10.15625 26.664062 -10.953125 28.34375 -12.546875 C 30.019531 -14.148438 30.859375 -16.410156 30.859375 -19.328125 C 30.859375 -22.234375 30.019531 -24.484375 28.34375 -26.078125 C 26.664062 -27.679688 24.429688 -28.484375 21.640625 -28.484375 L 16.171875 -28.484375 L 16.171875 -10.15625 Z M 21.640625 -10.15625 "/></g></g></g><g fill="#aa9aba" fill-opacity="1"><g transform="translate(266.283719, 191.521497)"><g><path d="M 3.140625 -38.640625 L 16.171875 -38.640625 L 16.171875 0 L 3.140625 0 Z M 3.140625 -38.640625 "/></g></g></g><g fill="#000000" fill-opacity="1"><g transform="translate(120.545912, 183.106633)"><g><path d="M 13.902344 -3 C 19.601562 -7.484375 25.527344 -24.578125 29.476562 -35.859375 C 29.78125 -36.769531 30.425781 -36.769531 30.464844 -35.9375 C 30.808594 -29.894531 31.644531 -23.933594 32.480469 -18.121094 C 33.199219 -12.953125 33.960938 -7.597656 34.378906 -2.242188 C 34.417969 -1.785156 34.757812 -1.40625 35.214844 -1.328125 C 35.667969 -1.253906 36.125 -1.519531 36.277344 -1.976562 C 40.226562 -12.382812 49.15625 -33.847656 53.066406 -38.59375 C 55.992188 -42.164062 59.03125 -43.53125 61.195312 -42.242188 C 62.601562 -41.40625 63.210938 -39.734375 62.753906 -38.175781 C 62.070312 -36.542969 59.753906 -36.011719 56.523438 -36.769531 C 55.953125 -36.886719 55.421875 -36.582031 55.308594 -36.050781 C 55.15625 -35.519531 55.5 -34.949219 56.03125 -34.835938 C 62.375 -33.316406 64.199219 -36.429688 64.578125 -37.417969 C 65.453125 -39.886719 64.464844 -42.621094 62.222656 -43.949219 C 61.046875 -44.632812 56.867188 -46.382812 51.511719 -39.886719 C 48.015625 -35.59375 41.253906 -19.90625 36.921875 -9.117188 C 36.808594 -8.8125 36.542969 -8.660156 36.238281 -8.699219 C 35.9375 -8.738281 35.707031 -9.003906 35.667969 -9.269531 C 35.328125 -12.382812 34.871094 -15.421875 34.453125 -18.421875 C 33.277344 -26.703125 32.0625 -35.328125 32.363281 -43.949219 C 32.363281 -44.40625 32.0625 -44.824219 31.566406 -44.9375 C 31.109375 -45.050781 30.65625 -44.785156 30.464844 -44.367188 C 29.78125 -42.773438 28.832031 -40.039062 27.578125 -36.542969 C 23.96875 -26.136719 17.890625 -8.699219 12.6875 -4.597656 C 10.710938 -2.847656 7.9375 -2.316406 5.507812 -3.230469 C 4.597656 -3.570312 3.988281 -4.367188 3.875 -5.316406 C 3.835938 -6.800781 5.394531 -8.507812 8.128906 -9.992188 C 8.433594 -10.179688 8.660156 -10.484375 8.660156 -10.863281 C 8.660156 -11.207031 8.472656 -11.546875 8.167969 -11.738281 C 7.863281 -11.929688 7.484375 -11.929688 7.179688 -11.738281 C 2.46875 -9.191406 1.824219 -6.570312 1.898438 -5.242188 C 2.011719 -3.53125 3.078125 -2.050781 4.671875 -1.445312 C 5.660156 -0.988281 6.722656 -0.757812 7.824219 -0.796875 C 10.027344 -0.796875 12.195312 -1.59375 13.902344 -3 Z M 13.902344 -3 "/></g></g></g><g fill="#000000" fill-opacity="1"><g transform="translate(164.633761, 183.106633)"><g><path d="M 31.871094 -9.761719 C 31.679688 -9.953125 31.453125 -10.105469 31.1875 -10.105469 C 30.921875 -10.140625 30.65625 -10.066406 30.464844 -9.914062 C 30.3125 -9.800781 15.6875 1.824219 3.496094 -3.191406 C 1.027344 -4.214844 0.910156 -5.546875 0.988281 -6.269531 C 0.988281 -6.382812 1.027344 -6.496094 1.140625 -6.570312 C 1.214844 -6.648438 1.367188 -6.648438 1.480469 -6.609375 C 3.949219 -6.457031 6.417969 -7.105469 8.546875 -8.433594 C 10.371094 -9.609375 10.675781 -10.902344 10.558594 -11.738281 C 10.484375 -13.105469 9.382812 -14.207031 7.976562 -14.246094 C 4.976562 -14.398438 -0.0390625 -10.828125 -0.875 -7.027344 C -1.214844 -5.621094 -1.175781 -2.964844 2.734375 -1.367188 C 5.128906 -0.378906 7.636719 0.0742188 10.179688 0.0742188 C 21.082031 0.0742188 31.1875 -7.9375 31.71875 -8.355469 C 31.910156 -8.507812 32.0625 -8.773438 32.0625 -9.003906 C 32.097656 -9.269531 32.023438 -9.535156 31.871094 -9.761719 Z M 2.355469 -8.925781 C 3.835938 -10.976562 6.304688 -12.347656 7.863281 -12.230469 C 8.28125 -12.230469 8.507812 -12.078125 8.585938 -11.511719 C 8.621094 -11.128906 8.207031 -10.597656 7.445312 -10.105469 C 5.886719 -9.078125 1.214844 -7.40625 2.355469 -8.925781 Z M 2.355469 -8.925781 "/></g></g></g><g fill="#000000" fill-opacity="1"><g transform="translate(195.050958, 183.106633)"><g><path d="M 29.972656 -9.078125 C 29.589844 -9.496094 28.984375 -9.535156 28.566406 -9.15625 C 28.488281 -9.117188 20.664062 -2.277344 14.929688 -3.191406 C 13.21875 -3.457031 11.738281 -4.484375 10.902344 -6 C 10.179688 -7.332031 8.851562 -8.167969 7.371094 -8.320312 C 5.507812 -8.433594 3.457031 -7.332031 1.292969 -5.050781 C 1.175781 -4.9375 0.988281 -4.898438 0.835938 -4.976562 C 0.683594 -5.050781 0.609375 -5.203125 0.644531 -5.394531 C 0.757812 -6.117188 1.101562 -7.9375 1.253906 -8.621094 C 1.253906 -8.507812 1.519531 -9.039062 1.519531 -9.078125 C 4.75 -13.484375 14.398438 -27.464844 10.636719 -31.945312 C 10.140625 -32.628906 9.230469 -32.933594 8.394531 -32.707031 C 7.636719 -32.480469 5.316406 -31.757812 1.746094 -19.070312 C 0.875 -15.992188 0.0742188 -12.6875 -0.570312 -9.574219 L -0.835938 -9.230469 C -1.101562 -8.890625 -1.101562 -8.433594 -0.875 -8.054688 C -1.445312 -5.242188 -1.824219 -2.660156 -2.011719 -0.683594 C -2.050781 -0.226562 -1.785156 0.191406 -1.367188 0.34375 C -0.949219 0.492188 -0.457031 0.34375 -0.191406 -0.0390625 C 3.683594 -5.660156 6.152344 -6.382812 7.253906 -6.34375 C 8.054688 -6.269531 8.773438 -5.773438 9.15625 -5.050781 C 10.292969 -3 12.308594 -1.558594 14.664062 -1.214844 C 21.273438 -0.191406 29.515625 -7.371094 29.894531 -7.671875 C 30.277344 -8.054688 30.3125 -8.660156 29.972656 -9.078125 Z M 8.964844 -30.808594 C 9.039062 -30.808594 9.078125 -30.695312 9.117188 -30.65625 C 10.941406 -28.605469 3.378906 -13.332031 2.429688 -13.941406 C 1.519531 -14.511719 7.371094 -30.808594 8.964844 -30.808594 Z M 8.964844 -30.808594 "/></g></g></g><g fill="#000000" fill-opacity="1"><g transform="translate(223.759316, 183.106633)"><g><path d="M 31.757812 -9.191406 C 31.378906 -9.609375 30.730469 -9.648438 30.3125 -9.269531 C 30.199219 -9.15625 18.917969 0.988281 11.929688 -3.609375 C 9.15625 -5.433594 8.472656 -9.839844 8.472656 -9.875 C 8.433594 -10.332031 8.089844 -10.675781 7.636719 -10.75 C 7.21875 -10.789062 6.761719 -10.558594 6.570312 -10.179688 C 4.785156 -6.230469 1.632812 -1.214844 0.757812 -1.785156 C 0.683594 -1.785156 0.53125 -1.9375 0.417969 -2.203125 C -0.0390625 -3.457031 0.113281 -4.824219 0.757812 -6 C 2.203125 -8.964844 4.863281 -11.09375 8.054688 -11.890625 C 8.394531 -11.964844 8.660156 -12.230469 8.773438 -12.574219 C 8.890625 -12.914062 8.773438 -13.296875 8.546875 -13.5625 C 8.28125 -13.789062 7.9375 -13.902344 7.597656 -13.828125 C 3.796875 -12.914062 0.644531 -10.332031 -1.0625 -6.835938 C -1.976562 -5.128906 -2.089844 -3.078125 -1.367188 -1.292969 C -1.027344 -0.417969 -0.191406 0.191406 0.757812 0.191406 L 0.796875 0.191406 C 2.660156 0.152344 4.976562 -2.164062 6.570312 -4.671875 C 6.761719 -4.976562 7.105469 -5.128906 7.445312 -5.089844 C 7.789062 -5.089844 8.089844 -4.898438 8.242188 -4.597656 C 8.890625 -3.53125 9.761719 -2.621094 10.828125 -1.976562 C 19.105469 3.53125 31.148438 -7.332031 31.679688 -7.789062 C 31.871094 -7.976562 31.984375 -8.242188 31.984375 -8.472656 C 32.023438 -8.738281 31.910156 -9.003906 31.757812 -9.191406 Z M 31.757812 -9.191406 "/></g></g></g></svg>